<svg width="65" height="65" viewBox="0 0 65 65" fill="none" xmlns="http://www.w3.org/2000/svg">
<path d="M14.7684 30.5895L25.7053 34.2351C27.5674 34.8558 28.4984 35.1661 29.1661 35.8339C29.8339 36.5016 30.1442 37.4326 30.7649 39.2947L34.4105 50.2316C37.5482 59.6445 39.117 64.3509 42 64.3509C44.883 64.3509 46.4519 59.6445 49.5895 50.2316L61.9404 13.1789C64.1481 6.55577 65.2519 3.24419 63.5039 1.49613C61.7558 -0.251936 58.4442 0.851925 51.8211 3.05965L14.7684 15.4105C5.35554 18.5482 0.649111 20.117 0.649111 23C0.649111 25.883 5.35554 27.4518 14.7684 30.5895L14.7684 30.5895Z" fill="url(#paint0_linear_28_96)"/>
<defs>
<linearGradient id="paint0_linear_28_96" x1="-2.18103" y1="-7.17242" x2="41.1379" y2="40.6724" gradientUnits="userSpaceOnUse">
<stop stop-color="#24ADFC"/>
<stop offset="0.505" stop-color="#00D9C3"/>
<stop offset="1" stop-color="#04D588"/>
</linearGradient>
</defs>
</svg>
